ply
format ascii 1.0
element vertex 151
property float32 x
property float32 y
property float32 z
end_header
0.050000 0.035155 0.030000
0.050000 0.036102 0.030000
0.050000 0.037050 0.030000
0.050000 0.037997 0.030000
0.100000 0.012353 0.030000
0.100000 0.013317 0.030000
0.100000 0.014282 0.030000
0.100000 0.015246 0.030000
0.100000 0.016210 0.030000
0.100000 0.017174 0.030000
0.100000 0.018139 0.030000
0.100000 0.019103 0.030000
0.100000 0.030420 0.030000
0.100000 0.031406 0.030000
0.100000 0.032393 0.030000
0.100000 0.033380 0.030000
0.100000 0.034366 0.030000
0.100000 0.035353 0.030000
0.100000 0.036340 0.030000
0.100000 0.037326 0.030000
0.100000 0.038313 0.030000
0.100000 0.039300 0.030000
0.100000 0.040286 0.030000
0.100000 0.041273 0.030000
0.100000 0.042259 0.030000
0.100000 0.043246 0.030000
0.100000 0.044233 0.030000
0.100000 0.045219 0.030000
0.100000 0.046206 0.030000
0.100000 0.047193 0.030000
0.100000 0.048179 0.030000
0.100000 0.049166 0.030000
0.100000 0.050153 0.030000
0.100000 0.051139 0.030000
0.100000 0.052126 0.030000
0.060810 0.050000 0.030000
0.061763 0.050000 0.030000
0.062716 0.050000 0.030000
0.063669 0.050000 0.030000
0.064623 0.050000 0.030000
0.065576 0.050000 0.030000
0.066529 0.050000 0.030000
0.067482 0.050000 0.030000
0.068436 0.050000 0.030000
0.069389 0.050000 0.030000
0.070342 0.050000 0.030000
0.071295 0.050000 0.030000
0.072249 0.050000 0.030000
0.073202 0.050000 0.030000
0.091483 0.050000 0.030000
0.092416 0.050000 0.030000
0.093350 0.050000 0.030000
0.094283 0.050000 0.030000
0.095217 0.050000 0.030000
0.096151 0.050000 0.030000
0.097084 0.050000 0.030000
0.098018 0.050000 0.030000
0.098951 0.050000 0.030000
0.099885 0.050000 0.030000
0.100818 0.050000 0.030000
0.101752 0.050000 0.030000
0.102686 0.050000 0.030000
0.103619 0.050000 0.030000
0.104553 0.050000 0.030000
0.105486 0.050000 0.030000
0.050000 0.030335 0.060000
0.050000 0.031315 0.060000
0.050000 0.032295 0.060000
0.050000 0.033275 0.060000
0.050000 0.034256 0.060000
0.050000 0.035236 0.060000
0.050000 0.036216 0.060000
0.050000 0.037196 0.060000
0.050000 0.038176 0.060000
0.050000 0.039157 0.060000
0.050000 0.040137 0.060000
0.050000 0.041117 0.060000
0.050000 0.042097 0.060000
0.050000 0.043078 0.060000
0.050000 0.044058 0.060000
0.050000 0.045038 0.060000
0.050000 0.046018 0.060000
0.050000 0.046998 0.060000
0.050000 0.047979 0.060000
0.050000 0.048959 0.060000
0.100000 0.030070 0.060000
0.100000 0.031036 0.060000
0.100000 0.032001 0.060000
0.100000 0.032967 0.060000
0.100000 0.033933 0.060000
0.100000 0.034898 0.060000
0.100000 0.035864 0.060000
0.100000 0.036830 0.060000
0.100000 0.037795 0.060000
0.100000 0.038761 0.060000
0.100000 0.039727 0.060000
0.100000 0.040692 0.060000
0.100000 0.041658 0.060000
0.100000 0.042624 0.060000
0.100000 0.043589 0.060000
0.100000 0.044555 0.060000
0.100000 0.045521 0.060000
0.100000 0.046486 0.060000
0.100000 0.047452 0.060000
0.100000 0.048418 0.060000
0.100000 0.049383 0.060000
0.100000 0.050349 0.060000
0.100000 0.051315 0.060000
0.100000 0.052280 0.060000
0.075474 0.050000 0.060000
0.076459 0.050000 0.060000
0.077444 0.050000 0.060000
0.078430 0.050000 0.060000
0.079415 0.050000 0.060000
0.080400 0.050000 0.060000
0.081385 0.050000 0.060000
0.082370 0.050000 0.060000
0.083355 0.050000 0.060000
0.084341 0.050000 0.060000
0.085326 0.050000 0.060000
0.086311 0.050000 0.060000
0.087296 0.050000 0.060000
0.088281 0.050000 0.060000
0.089266 0.050000 0.060000
0.090251 0.050000 0.060000
0.091237 0.050000 0.060000
0.092222 0.050000 0.060000
0.093207 0.050000 0.060000
0.094192 0.050000 0.060000
0.095177 0.050000 0.060000
0.096162 0.050000 0.060000
0.097148 0.050000 0.060000
0.098133 0.050000 0.060000
0.099118 0.050000 0.060000
0.100103 0.050000 0.060000
0.101088 0.050000 0.060000
0.102073 0.050000 0.060000
0.103059 0.050000 0.060000
0.104044 0.050000 0.060000
0.105029 0.050000 0.060000
0.106014 0.050000 0.060000
0.106999 0.050000 0.060000
0.107984 0.050000 0.060000
0.108970 0.050000 0.060000
0.050000 0.039079 0.090000
0.050000 0.040059 0.090000
0.050000 0.041039 0.090000
0.050000 0.042018 0.090000
0.050000 0.042998 0.090000
0.050000 0.043978 0.090000
0.050000 0.044957 0.090000
